PathFileType	4	(X/Y/Z)	C:\Users\WrightLab\Desktop\Jo\P5V45.trc
DataRate	CameraRate	NumFrames	NumMarkers	Units	OrigDataRate	OrigDataStartFrame	OrigNumFrames
100.00	100.00	       21	19	mm	100.00	631	       840
Frame#	Time	Headset_Front			Headset_Back			Headset_Left			Headset_Right			Left_Shoulder			Right_Shoulder			Sternum			C7			Left Elbow			Right Elbow			Left Wrist			Right Wrist			Left ASIS			Right ASIS			S2			Left Knee			Right Knee			Left Ankle			Right Ankle			
		X1	Y1	Z1	X2	Y2	Z2	X3	Y3	Z3	X4	Y4	Z4	X5	Y5	Z5	X6	Y6	Z6	X7	Y7	Z7	X8	Y8	Z8	X9	Y9	Z9	X10	Y10	Z10	X11	Y11	Z11	X12	Y12	Z12	X13	Y13	Z13	X14	Y14	Z14	X15	Y15	Z15	X16	Y16	Z16	X17	Y17	Z17	X18	Y18	Z18	X19	Y19	Z19	

631	6.300				86.41765	1654.45667	958.47400							458.41397	1520.74512	838.46533	53.78300	1465.70068	741.79059	232.75233	1335.42004	872.46960	277.54541	1526.70227	663.39386	554.97552	1221.99670	867.08600	-3.84466	1181.83130	672.17651	454.97760	1044.78442	1000.46265	-27.88982	1052.84070	870.19128	384.86462	945.78278	911.01208	99.36682	957.15515	832.76471	355.58636	974.60010	597.36053	433.34555	514.27319	903.99133	143.23262	528.54388	861.24506	473.38910	277.97433	517.63586	269.33850	125.32054	750.13513	
632	6.310				83.25932	1655.90137	962.49786							456.35556	1521.32617	848.05157	53.72714	1466.66309	745.17786	229.93753	1336.29297	878.27856	278.47516	1527.37402	670.12646	553.26318	1222.39709	877.71997	-3.50110	1182.86633	675.63416	449.89337	1045.02954	1008.33429	-29.52576	1054.37134	873.60895	381.39331	947.12305	923.63440	96.80718	958.22705	836.55975	358.12015	974.66205	608.26996	430.56277	517.47119	921.32269	140.10423	526.54755	859.51740	476.10162	281.44565	539.31573	269.25198	125.72022	750.31628	
633	6.320				80.05501	1657.24915	966.39160							454.40463	1521.54419	857.06293	53.36743	1467.49414	748.68744	227.49442	1336.54749	884.50366	279.19363	1528.43628	676.73322	551.57227	1221.91675	887.58990	-2.91400	1183.50024	678.92188	445.37405	1045.44409	1016.35815	-30.79924	1055.37195	876.76611	381.28214	946.92596	929.70642	93.10147	958.68469	839.84698	360.10217	974.86090	619.00269	426.36316	519.97992	937.89862	136.69276	525.00134	858.35468	479.01370	283.31479	562.54913	269.39450	126.20982	750.48566	
634	6.330				76.90781	1658.34729	970.11633							452.83627	1522.13037	867.49677	53.22485	1468.48523	751.98035	225.00893	1337.61987	890.32605	280.34558	1528.87268	683.45355	549.01318	1222.65295	897.94354	-1.98769	1184.44006	682.02899	440.62936	1045.69360	1024.80396	-32.27361	1056.89636	880.10052	377.51837	948.14624	941.08478	88.44934	959.99402	842.49994	362.92593	975.35486	628.98572	421.23026	522.48895	953.03241	133.63100	523.30634	857.04895	482.18591	283.86044	585.69293	269.59546	126.71162	750.60828	
635	6.340				73.62623	1659.58557	973.66119							450.81985	1522.31226	876.15198	53.31408	1469.64343	755.36029	222.05067	1338.39917	896.17712	281.29361	1529.55566	690.31647	545.58350	1222.67871	908.73993	-1.47880	1185.61279	685.37109	435.02441	1046.24036	1032.73389	-33.69835	1058.21240	882.82190	374.21176	947.84656	949.84460	85.55113	960.65192	845.34784	365.11911	975.72858	639.84283	415.73062	524.53900	968.22009	131.31458	521.15979	855.93201	484.75055	283.15527	610.12512	269.62286	126.98750	750.78394	
636	6.350				71.23635	1660.11157	977.00757							449.04407	1522.74805	886.05151	53.10469	1470.79626	758.07990	218.98724	1338.66626	901.86139	282.34113	1530.24036	696.65771	543.24878	1222.80774	918.67175	-0.47789	1186.19971	688.19080	430.20224	1046.01062	1040.74121	-35.01667	1059.23206	885.59283	370.67383	948.85016	958.50134	83.86333	961.16675	848.05634	367.10498	975.88745	650.78680	410.18661	527.29401	981.85028	129.02438	520.52612	855.04938	487.67392	282.26520	633.94379	269.67554	127.75330	751.45435	
637	6.360				67.90214	1661.27527	980.30469							446.81708	1523.39233	895.44989	53.11258	1471.71570	761.28949	215.99249	1339.54236	907.39471	283.49026	1531.08752	703.14746	539.99310	1223.06470	929.30396	-0.33514	1187.62939	690.58398	425.01611	1046.27795	1049.07227	-36.54765	1060.91260	888.13452	365.67554	950.15173	969.45380	80.19114	962.46191	849.63477	368.54022	976.40454	662.19263	404.56305	529.59344	996.13885	125.89450	518.81775	853.74774	490.00031	279.66260	659.05804	270.31903	127.27716	751.67603	
638	6.370				64.76774	1662.26208	983.57776							444.06631	1523.60205	905.25574	53.30587	1472.82629	763.97998	213.59999	1340.49353	911.87329	284.26416	1531.98413	709.67004	537.54840	1222.58313	939.41193	1.28094	1188.23511	693.15198	420.13818	1046.18628	1056.88660	-38.01574	1062.30249	890.64758	360.50818	950.32617	979.24622	77.76553	963.45453	852.31866	370.44995	977.03290	672.77734	398.48666	531.46661	1008.43268	124.29083	518.04639	852.93475	491.69992	276.96176	682.88824	270.50638	127.52966	751.96802	
639	6.380				61.43028	1663.42395	986.79358							441.11234	1522.70447	914.32031	53.33945	1473.78845	766.52368	211.05515	1341.13599	917.42480	285.31244	1532.90588	716.79187	534.28125	1223.50415	950.89874	1.46965	1189.47583	695.62585	414.81165	1046.36060	1064.93152	-39.48302	1063.32056	893.28156	354.99841	951.22882	989.41840	76.19714	964.67493	854.38873	371.45728	977.88507	684.20801	391.59161	534.32739	1020.45734	122.06989	517.04205	851.92615	493.12195	272.30676	708.33484	270.92096	127.52252	752.26172	
640	6.390	254.86566	1734.10388	956.37610	58.08114	1664.58020	989.91364							439.96497	1524.48743	924.15723	53.52190	1474.94995	769.61609	207.88463	1341.74768	922.69147	286.64304	1533.68518	722.85870	530.35876	1222.97192	960.74323	3.43096	1190.17334	698.11041	409.62430	1046.19788	1072.59949	-41.02504	1064.56787	895.26318	350.30606	951.76593	997.75079	74.66778	965.39655	855.81183	372.45667	978.44769	694.71161	385.30795	536.98322	1031.98975	120.34608	516.79108	851.41455	494.54999	267.91901	733.69879	271.04727	127.72395	752.33307	
641	6.400	252.83813	1734.45117	962.43677	54.72397	1665.72864	992.96857							435.76431	1522.71387	933.66998	54.01293	1476.14880	772.15515	204.64456	1342.22534	927.96942	287.73511	1534.15417	730.71991	527.05042	1224.18396	971.92450	4.36326	1191.25024	700.64948	404.55103	1045.95654	1080.64954	-42.47015	1065.90332	897.38947	344.79581	952.83899	1007.01245	73.44128	966.15570	858.33032	373.51172	979.54755	705.31110	379.00034	539.83459	1043.31714	119.14630	516.40436	851.35590	494.57553	262.11624	761.06549	271.20459	127.91764	752.40350	
642	6.410				51.41444	1666.98254	996.06305							432.89304	1523.00781	942.86182	54.00998	1477.31201	774.82416	201.99915	1342.41064	933.21716	288.69406	1534.75305	738.29987	524.08710	1223.45447	982.22791	5.91446	1191.92151	703.54523	398.58459	1045.36646	1088.61047	-44.04521	1067.29712	899.25018	340.00479	952.66321	1014.83972	72.16592	966.55945	859.70386	373.70084	980.24805	715.27576	372.09836	542.06000	1054.56250	117.56535	515.97205	851.11328	493.13074	256.01767	787.40833	271.40247	128.28908	752.80493	
643	6.420				48.11544	1668.26221	999.13574							429.75336	1523.41016	952.96515	53.91258	1478.11169	777.91638	199.27708	1343.14697	938.64105	289.36292	1535.63232	745.74316	520.03870	1223.57227	993.34637	7.37673	1192.96436	705.57501	393.66440	1045.23828	1095.95874	-45.09554	1068.31860	901.36877	334.49857	952.82861	1022.96765	71.78957	967.18890	861.21381	374.50464	982.40656	725.46930	365.10931	543.62946	1065.01428	115.95854	515.64484	850.64496	492.40338	249.51268	814.64642	271.58203	128.45549	753.38013	
644	6.430				44.82042	1669.56213	1002.15723							426.43634	1523.65137	961.99768	54.12765	1478.61206	780.37244	196.35104	1343.73242	943.64642	290.26013	1536.34119	752.58606	516.34955	1223.80872	1003.81360	8.26820	1193.60498	708.16840	387.76831	1044.84387	1104.25269	-46.53428	1069.97839	904.12988	329.54645	953.59448	1031.09155	71.03336	967.50732	864.11914	375.93042	983.59674	734.60468	357.74496	545.04022	1075.14429	114.25241	515.19507	850.47717	490.29910	243.12190	842.41095	271.92557	129.04526	753.47021	
645	6.440				41.52691	1670.84045	1005.21014							422.52219	1522.16272	973.06134	54.50542	1479.58472	783.06555	193.09898	1344.43872	949.08801	290.51935	1537.38403	758.97388	512.53070	1223.74414	1014.77399	10.10597	1194.40442	710.27832	382.53864	1044.32642	1112.39063	-47.59731	1070.87036	904.85797	322.69720	953.12866	1036.83582	70.69130	967.82721	865.81891	377.45737	984.99567	742.74493	350.95657	546.06897	1085.26160	112.37089	514.90332	850.25836	487.75620	235.35648	870.23553	271.95837	129.81024	754.18799	
646	6.450				38.24419	1672.10901	1008.32526							419.89706	1523.19995	982.46674	55.06006	1480.35425	785.74396	190.15581	1345.13647	954.38910	291.38458	1537.85657	767.16223	508.01239	1224.58630	1025.27686	12.01819	1194.93347	712.60333	376.34048	1044.09229	1119.82104	-48.34801	1071.52527	906.38092	317.86664	953.09937	1043.26270	70.57084	968.09705	867.96344	378.46072	984.93341	751.72784	343.79163	547.52472	1095.32263	110.72517	514.46552	849.65967	484.34396	228.14885	899.18695	272.15134	130.87607	753.75397	
647	6.460				34.99465	1673.41602	1011.53577							416.46475	1523.88318	992.09656	55.36968	1480.94226	788.49976	187.67676	1344.91016	958.85004	292.23315	1538.38916	775.18530	503.60544	1224.55969	1036.02173	13.72615	1195.25842	715.14703	369.99719	1042.63684	1127.15198	-49.63525	1072.69617	908.20197	312.23865	953.25281	1049.92188	70.22041	968.69897	870.25568	380.18881	985.34137	761.05988	336.56049	549.12097	1104.98474	108.27547	514.43225	849.24878	479.09070	220.68016	926.78967	272.36554	131.10364	753.84674	
648	6.470				31.73687	1674.66125	1014.80444							412.71579	1524.14063	1001.97388	55.47535	1481.61243	791.57513	183.78242	1345.55542	964.79065	292.35947	1539.59058	781.41003	499.53937	1224.38245	1046.04102	15.22600	1196.09143	717.18378	364.28473	1042.75085	1135.30835	-50.79013	1073.53088	909.64435	307.19476	952.69531	1055.80139	70.34160	968.99982	871.25574	381.45126	986.09485	768.97668	329.74991	549.78284	1114.12781	106.72589	514.46515	848.69159	473.81894	212.69090	955.47394	272.47250	131.43349	754.40192	
649	6.480	230.94028	1738.96692	1012.72906	28.45783	1675.55505	1018.20288							409.37418	1524.52576	1011.61542	55.92131	1482.22668	794.31244	182.10262	1345.88965	968.56335	292.99667	1540.27661	790.03247	494.76764	1224.69543	1057.32141	16.83385	1196.96863	719.77673	358.71576	1042.22937	1142.85876	-51.48127	1074.11255	910.93451	301.57590	952.93542	1061.97766	70.62900	969.81732	874.25568	383.44644	986.87524	777.70215	323.13043	550.82092	1123.79944	104.85583	514.56830	848.17566	466.93671	204.79578	984.90894	272.69257	131.64594	754.44330	
650	6.490				25.59278	1676.45081	1021.60345							405.58908	1524.79419	1021.58398	56.35497	1482.84656	797.26855	178.66942	1346.12915	973.67456	293.39795	1541.08032	797.70929	490.60211	1224.81641	1067.40308	18.72706	1197.87585	722.22131	353.45499	1042.66785	1151.21423	-52.77571	1074.83728	912.26068	298.24774	948.89722	1063.64685	70.51004	970.12128	876.09760	384.81976	987.93579	786.47797	316.83118	552.78149	1132.12610	102.61813	514.45233	846.90967	458.99817	197.51552	1013.38696	272.93463	131.82222	754.53442	
651	6.500	224.58221	1740.00793	1026.01135	22.09517	1677.28845	1025.33716							401.80057	1525.01819	1031.47522	56.53308	1483.89331	800.40216	175.26973	1346.63037	978.81476	293.33301	1542.01465	804.66614	486.57770	1225.33569	1078.72803	20.81073	1198.32642	724.81403	347.57700	1041.60364	1158.43896	-53.95935	1075.35974	913.62622	294.33240	950.63269	1071.61597	70.00601	971.09113	877.73071	386.28284	988.91003	795.03540	310.72318	552.98322	1140.75012	100.82664	514.38647	845.84747	450.06668	190.19856	1042.60034	273.00552	131.88908	753.41968	
